<svg version="1.1" viewBox="0 0 50 50" xmlns="http://www.w3.org/2000/svg">
 <g transform="translate(-50.145 -176.44)">
  <path d="m64.752 226.26c-0.61332-0.27476-1.1684-0.86152-1.4045-1.4846-0.25756-0.67978-0.22389-3.5114 0.04953-4.1658 0.28134-0.67334 1.0992-1.3797 1.7673-1.5265l0.50361-0.11062-0.0094-8.855-0.0094-8.855-1.1772-0.56199c-2.1171-1.0108-3.8297-3.1682-4.2953-5.4113-0.11935-0.57489-0.16675-2.9549-0.13566-6.8111 0.04584-5.6876 0.06169-5.946 0.39117-6.3871 0.75949-1.0167 1.0977-1.1418 3.2488-1.202l1.9869-0.0556v-4.3022h17.487v2.8312h4.5006l-0.08724 39.615 0.5448 0.10224c0.74178 0.13913 1.6598 0.98386 1.8846 1.7341 0.10347 0.34517 0.1595 1.3629 0.12698 2.3044-0.06286 1.8184-0.22584 2.2173-1.2048 2.9484-0.45297 0.33826-0.63273 0.34392-12.064 0.38025-9.4184 0.03-11.698-6e-3 -12.104-0.18693zm22.483-3.5138v-0.8327h-21.151l-0.05273 0.64204c-0.09873 1.2022-0.98421 1.1136 10.665 1.0662l10.538-0.0428zm-2.4148-5.9122v-2.165h-2.4981v-2.4981h2.4981v-2.4981h-16.321v2.4981h2.4981v2.4981h-2.4981v4.33h16.321zm-11.658-3.4141v-1.249h2.4981v2.4981h-2.4981zm4.6631 0v-1.249h2.4981v2.4981h-2.4981zm6.9947-8.5768v-1.9985h-16.321v3.997h16.321zm0-9.7426v-4.9129h-16.321v9.8259h16.321zm-13.989-0.66615v-1.249h2.4981v2.4981h-2.4981zm4.6631 0v-1.249h2.4981v2.4981h-2.4981zm4.6631 0v-1.249h2.4981v2.4981h-2.4981z" stroke-width=".16654"/>
 </g>
</svg>
