<svg version="1.1" viewBox="0 0 13.229 13.229" xmlns="http://www.w3.org/2000/svg">
 <g transform="translate(0 -283.77)">
  <path d="m2.1867 296.49c-0.42887-0.42887-0.30594-1.1665 0.2873-1.7238 0.57081-0.53625 0.77441-1.8257 0.33149-2.0995-0.12155-0.0751-0.221-0.32961-0.221-0.56554 0-0.31443-0.15315-0.42895-0.57364-0.42895-0.68343 0-1.7906-0.61228-1.9747-1.092-0.19062-0.49674 0.95811-1.3365 1.8301-1.3378 0.56325-8.4e-4 0.71824-0.0936 0.71824-0.43004 0-0.23593 0.099448-0.49042 0.221-0.56554 0.44292-0.27374 0.23931-1.5632-0.33149-2.0995-0.74231-0.69737-0.74693-1.6889-0.00943-2.0249 0.4753-0.21655 0.6417-0.16082 1.3337 0.44673 0.95515 0.83863 1.4194 0.86745 2.2819 0.14167 0.82915-0.69768 2.0102-0.74207 2.5935-0.0975 0.53188 0.58771 0.45291 1.6952-0.16801 2.3561-0.38977 0.4149-0.70528 0.5038-1.7878 0.5038-1.1434 0-1.2787 0.0432-1.0394 0.3315 0.15131 0.18231 0.44195 0.33149 0.64585 0.33149 0.51957 0 0.90113 0.4398 0.90113 1.0387 0 0.74426 0.46046 0.62384 1.4365-0.37569l0.86319-0.884h1.8336c1.769 0 1.8336 0.0181 1.8336 0.51114 0 0.28115-0.29835 0.79698-0.66299 1.1463-0.36464 0.34934-0.66299 0.74714-0.66299 0.88398s0.29834 0.53463 0.66299 0.88398c0.36464 0.34936 0.66299 0.86521 0.66299 1.1463 0 0.49183-0.06717 0.51115-1.7774 0.51115h-1.7774l-1.0632-0.99449c-1.2005-1.1229-1.3488-1.182-1.3488-0.53796 0 0.76123-0.42051 1.3114-1.0023 1.3114-0.33686 0-0.54472 0.12651-0.54472 0.3315 0 0.25685 0.29086 0.3315 1.2917 0.3315 1.5248 0 2.0232 0.39063 2.0232 1.5858 0 1.6046-1.588 2.3092-2.652 1.1766-0.34069-0.36264-0.75835-0.55248-1.2155-0.55248-0.45713 0-0.87479 0.18984-1.2155 0.55248-0.55731 0.59323-1.2949 0.71616-1.7238 0.2873zm1.0445-0.70962c0.17691-0.21316 0.18547-0.35713 0.027062-0.45503-0.30859-0.19073-0.67372 0.0524-0.67372 0.44841 0 0.40576 0.31275 0.40896 0.64666 7e-3zm4.8341 0.0466c0.35006-0.35006 0.33839-1.1669-0.020925-1.4651-0.15737-0.1306-1.0275-0.26708-1.9337-0.3033-1.4771-0.059-1.6544-0.11359-1.7135-0.52717-0.036251-0.25374 0.088058-0.58913 0.27625-0.74531 0.1914-0.15885 0.3289-0.5885 0.31206-0.97515-0.026177-0.60124-0.043008-0.61928-0.12929-0.13869-0.054559 0.30388-0.34706 0.81461-0.65001 1.135-0.3827 0.40467-0.52873 0.77566-0.47845 1.2155 0.066946 0.5856 0.15044 0.63804 1.1146 0.70007 0.57322 0.0369 1.2482-0.0432 1.5001-0.17798 0.71238-0.38125 1.3252-0.0761 1.3252 0.6599 0 0.34632-0.12431 0.67985-0.27625 0.74116-0.18357 0.0741-0.16132 0.11732 0.066295 0.1289 0.1884 9e-3 0.46188-0.10185 0.60774-0.24774zm1.5912-4.0442c-0.28547-0.30387-0.61849-0.55251-0.74004-0.55251-0.12155 0 0.012565 0.24864 0.29804 0.55251 0.28547 0.30387 0.61849 0.55248 0.74004 0.55248 0.12155 0-0.012565-0.24861-0.29804-0.55248zm2.3217-0.10916c-0.22067-0.24382-0.54053-0.44335-0.71079-0.44335-0.17971 0-0.04945 0.22389 0.3105 0.5337 0.71988 0.61962 0.98802 0.5591 0.40029-0.0904zm-8.2055 0.10089c0.075099-0.19572-0.012654-0.39477-0.20688-0.4693-0.4324-0.16593-0.62972 0.0336-0.46297 0.46813 0.16776 0.43716 0.50232 0.43774 0.66986 8.2e-4zm2.7482-0.15992c0.051067-0.26521-0.06794-0.38423-0.38421-0.38423-0.31627 0-0.4582 0.14195-0.4582 0.45821 0 0.56634 0.73146 0.50208 0.8424-0.074zm4.4615 0.42352c0-0.042-0.22376-0.26568-0.49724-0.49724l-0.49724-0.42099 0.421 0.49723c0.39563 0.46729 0.57349 0.59787 0.57349 0.421zm-8.6189-1.5812c0-0.42917-0.11345-0.55249-0.50829-0.55249-0.76004 0-1.1165 0.44424-0.64425 0.80297 0.63533 0.48265 1.1525 0.37024 1.1525-0.25048zm8.8399-0.11048c0-0.29941-7.8813-0.29941-8.0664 0-0.089181 0.14429 1.2869 0.22098 3.9649 0.22098 2.587 0 4.1015-0.0816 4.1015-0.22098zm-7.4554-0.79511c0.21506-0.21506-0.080219-0.75187-0.41358-0.75187-0.16932 0-0.30785 0.19889-0.30785 0.44199 0 0.41605 0.4304 0.60091 0.72143 0.30988zm2.8145-0.30988c0-0.28785-0.14733-0.44199-0.42244-0.44199-0.36779 0-0.43998 0.23236-0.25746 0.82873 0.00929 0.0303 0.16608 0.0552 0.3484 0.0552 0.18416 0 0.33149-0.19645 0.33149-0.442zm3.094-0.11051c0.28547-0.30386 0.41959-0.55248 0.29804-0.55248-0.12155 0-0.45456 0.24862-0.74004 0.55248-0.28547 0.30387-0.41959 0.5525-0.29804 0.5525 0.12155 0 0.45456-0.24863 0.74004-0.5525zm1.4503-0.50182c-0.15858-0.15857-0.54942 0.16702-0.81612 0.67989-0.24043 0.46233-0.22508 0.46 0.32944-0.05 0.31989-0.29423 0.5389-0.57767 0.48669-0.62987zm0.93203 0.38707c0.15035-0.24075 0.20577-0.43773 0.12315-0.43773-0.2205 0-0.95851 0.70166-0.95851 0.9113 0 0.3007 0.54465-8e-3 0.83536-0.47357zm-7.3548-0.87973c-0.20186-0.22305-0.33416-0.63749-0.294-0.921 0.068475-0.48344 0.18973-0.52234 1.9515-0.62598 1.7549-0.10323 1.8832-0.144 1.9507-0.61989 0.068427-0.48266-0.28362-1.1481-0.60739-1.1481-0.082255 0-0.10892 0.34806-0.059257 0.77348 0.087598 0.75039 0.067801 0.77348-0.66317 0.77348-0.41441 0-0.85929-0.10582-0.98864-0.23516-0.12934-0.12935-0.67134-0.20394-1.2044-0.16576-0.90812 0.065-0.97352 0.11332-1.0368 0.76529-0.049515 0.50986 0.083393 0.84684 0.49724 1.2607 0.31065 0.31065 0.57837 0.7931 0.59492 1.0721l0.030095 0.50728 0.098162-0.51546c0.055737-0.29268-0.060464-0.69076-0.26885-0.92102zm-1.3141-3.0747c-0.17131-0.27718-0.78539-0.32679-0.78539-0.0635 0 0.0972 0.11934 0.29614 0.2652 0.44199 0.30895 0.30896 0.74774-0.0103 0.52019-0.37854z" stroke-width=".221"/>
 </g>
</svg>
