<svg version="1.1" viewBox="0 0 13.229 13.229" xmlns="http://www.w3.org/2000/svg">
 <g transform="translate(0 -283.77)">
  <path d="m4.0296 296.04-0.80247-0.94783 0.94781 0.80248c0.93205 0.78913 0.96357 0.78913 1.8956 0l0.94781-0.80248-0.80247 0.94783c-0.44136 0.52129-0.93327 0.9478-1.0931 0.9478-0.15987 0-0.65178-0.42651-1.0931-0.9478zm-0.42833-1.9489c0.66249-0.73203 0.66385-0.8102 0.018389-1.0579-0.51579-0.19794-0.62994-0.0928-0.43915 0.40439 0.39457 1.0282-0.61632 0.50985-1.6127-0.82704-0.82957-1.113-0.83456-1.1893-0.11229-1.7185 0.71062-0.52064 0.68832-0.60687-0.37275-1.4415-0.62071-0.48826-0.92257-0.88774-0.67079-0.88774 0.25178 0 1.083-0.64057 1.8471-1.4235 1.0261-1.0513 1.885-1.4903 3.285-1.6789 3.4415-0.46362 4.8389-0.5185 5.2765-0.20726 0.23769 0.16907 0.40784 1.3685 0.37812 2.6654-0.07873 3.4357 0.8444 2.7351 0.99927-0.75838l0.12455-2.8098h-3.6247c-1.9936 0-3.5369-0.14218-3.4295-0.31595 0.14936-0.24169 6.3119-0.36262 7.437-0.14583 0.32216 0.062 0.20462 5.2662-0.13122 5.8096-0.1624 0.26276-0.05714 0.57376 0.23391 0.69111 0.29105 0.11734-0.0869 0.2283-0.83987 0.2466l-1.3691 0.0333v-5.055h-1.7943c-1.3102 0-1.9299 0.21719-2.297 0.80504-0.40967 0.65599-0.38075 0.85185 0.1562 1.0579 0.46559 0.17865 0.58726 0.0661 0.41464-0.3838-0.38268-0.99726 0.42441-0.74623 1.339 0.41647 0.45561 0.57923 1.0636 1.0531 1.3511 1.0531 0.28751 0 0.014807 0.39947-0.60583 0.88773-1.0451 0.82212-1.0744 0.92733-0.39615 1.4233 0.77959 0.57006 0.67008 0.85571-1.2538 3.2705-0.68425 0.85885-1.7911 0.96756-2.1443 0.21063-0.19658-0.42124-0.29487-0.42124-0.49146 0-0.13516 0.2896-0.63843 0.52656-1.1184 0.52656-0.82684 0-0.83511-0.0416-0.15733-0.79044zm3.6213-0.98663c0.0035-0.16651-0.26592-0.1982-0.59882-0.0706-0.3329 0.12768-0.49608 0.51681-0.36263 0.8646 0.19739 0.51437 0.30908 0.52753 0.59882 0.0704 0.1959-0.30903 0.35908-0.6981 0.36263-0.86459zm-4.6273-0.93617c0-0.10221-0.18956-0.30293-0.42125-0.4461-0.23169-0.14314-0.42125-0.0596-0.42125 0.18575 0 0.24536 0.18956 0.44611 0.42125 0.44611 0.23169 0 0.42125-0.0836 0.42125-0.18576zm5.8975-0.23549c0-0.23168-0.083586-0.42124-0.18576-0.42124-0.10217 0-0.30292 0.18956-0.44611 0.42124-0.1432 0.23169-0.059592 0.42125 0.18576 0.42125 0.24536 0 0.44611-0.18956 0.44611-0.42125zm-2.5443-1.0329c1.119-1.3484-0.52455-3.4196-1.9841-2.5004-0.9359 0.58939-1.1646 1.7114-0.50977 2.5004 0.65066 0.784 1.8432 0.784 2.4939 0zm-3.5638-2.3371c0.1432-0.23168 0.059593-0.42124-0.18576-0.42124-0.24536 0-0.44611 0.18956-0.44611 0.42124 0 0.23169 0.083603 0.42126 0.18576 0.42126 0.10217 0 0.30292-0.18957 0.44611-0.42126zm6.1081 0c0-0.23168-0.20075-0.42124-0.44611-0.42124s-0.32895 0.18956-0.18576 0.42124c0.1432 0.23169 0.34394 0.42126 0.44611 0.42126 0.10217 0 0.18576-0.18957 0.18576-0.42126zm-4.4546-1.736c-0.27299-0.44171-1.0216-0.0871-1.0216 0.4839 0 0.21075 0.28325 0.27448 0.62945 0.1417 0.3462-0.13279 0.52266-0.41433 0.39214-0.62553zm1.7165-0.37023c0.1432-0.23169-0.14116-0.42126-0.63187-0.42126-0.49072 0-0.77506 0.18957-0.63187 0.42126 0.1432 0.23169 0.42753 0.42125 0.63187 0.42125 0.20434 0 0.48868-0.18956 0.63187-0.42125zm-5.2656 3.7912c0-0.23168 0.18956-0.42125 0.42125-0.42125 0.23169 0 0.42125 0.18957 0.42125 0.42125 0 0.23169-0.18956 0.42125-0.42125 0.42125-0.23169 0-0.42125-0.18956-0.42125-0.42125zm8.425 0c0-0.23168 0.18956-0.42125 0.42125-0.42125 0.23169 0 0.42125 0.18957 0.42125 0.42125 0 0.23169-0.18956 0.42125-0.42125 0.42125-0.23169 0-0.42125-0.18956-0.42125-0.42125z" stroke-width=".42125"/>
 </g>
</svg>
