<svg version="1.1" viewBox="0 0 13.229 13.229" xmlns="http://www.w3.org/2000/svg">
 <g transform="translate(0 -283.77)">
  <path d="m4.2744 296.69c0-0.31134-1.3356-0.58987-2.8285-0.58987-0.7507 0-0.75201-2e-3 -0.75201-1.0915 0-0.69724-0.12126-1.1922-0.33568-1.3701-0.68004-0.56438-0.40879-1.6187 0.70784-2.7513l1.0435-1.0584-0.48405-0.51525c-0.26623-0.28339-0.48405-0.71973-0.48405-0.96965 0-0.52913 0.6577-1.1951 1.1802-1.1951 0.27279 0 0.37851-0.26138 0.42995-1.063 0.062606-0.9757 0.11914-1.0688 0.68866-1.1343 0.73968-0.085 2.8493 1.3504 2.8462 1.9366-0.0011 0.2049-0.35353 0.74348-0.78324 1.1968-0.42972 0.45334-0.7813 0.88473-0.7813 0.95865 0 0.0739 1.0826 0.10582 2.4057 0.0709l2.4057-0.0636 0.067204-1.4207c0.047295-0.99996-0.035561-1.5776-0.27973-1.9502-0.19081-0.29121-0.34693-0.83513-0.34693-1.2087v-0.67922h3.3568v0.88193c0 0.48506-0.1007 0.94416-0.22378 1.0202-0.12809 0.0792-0.22378 1.2331-0.22378 2.6986v2.5603h0.67135c0.99354 0 0.8987 0.80609-0.22378 1.9022-0.76984 0.75172-0.89514 1.0087-0.89514 1.8357v0.9616l-1.1749 6e-3c-0.67622 4e-3 -1.3592 0.14656-1.6093 0.33568-0.25355 0.19177-0.92234 0.32855-1.6064 0.32855-0.74345 0-1.2948 0.12275-1.5077 0.33567-0.41938 0.4194-1.2628 0.43971-1.2628 0.0304zm1.088-0.88826c0.18744-0.22585 0.16691-0.29838-0.084487-0.29838-0.18267 0-0.33212 0.13427-0.33212 0.29838 0 0.16412 0.038019 0.29839 0.084495 0.29839 0.046468 0 0.19592-0.13427 0.33212-0.29839zm-1.1399-0.59675c0.20541-0.32892 0.52187-0.44756 1.1937-0.44756 0.72599 0 0.93828 0.0921 1.0312 0.44756 0.086856 0.33214 0.30524 0.44757 0.84678 0.44757 0.95559 0 1.3222-0.48282 1.3342-1.7569 0.00972-1.0387 0.011153-1.0405 0.84897-1.1098 0.80443-0.0665 0.83919-0.1034 0.83919-0.88954v-0.82008l-3.2554 3.2337h-1.6836c-1.6696 0-1.691-7e-3 -2.5583-0.89573l-0.87466-0.89574 0.98773-1.0064c0.54325-0.55354 1.074-1.0064 1.1793-1.0064 0.32585 0 2.4004 1.8856 2.4005 2.1819 1.54e-4 0.39084-2.1055 0.37301-2.4322-0.0206-0.30283-0.36489-0.11021-0.59482 0.49829-0.59482 0.44626 0 0.44654-5e-3 0.01865-0.32326-0.3904-0.29052-0.48968-0.26872-0.98027 0.21529-0.53294 0.52579-0.5361 0.54936-0.13315 0.99461 0.33546 0.37068 0.68781 0.45606 1.8821 0.45606h1.4694l1.2932-1.2798c2.014-1.993 1.9323-2.077-2.0212-2.077h-3.3144l-0.93747 1.013c-0.51561 0.55715-0.93747 1.234-0.93747 1.504 0 0.49861 2.34 3.0775 2.7924 3.0775 0.1281 0 0.35868-0.20141 0.51241-0.44757zm6.3179-1.007c0-0.44757-0.11189-0.55946-0.55946-0.55946-0.44757 0-0.55946 0.11189-0.55946 0.55946 0 0.44756 0.11189 0.55947 0.55946 0.55947 0.44757 0 0.55946-0.11191 0.55946-0.55947zm1.5177-2.3358c0.32415-0.18895 0.28791-0.22517-0.23091-0.23091-0.52542-6e-3 -0.61441 0.0831-0.6086 0.6086 0.0057 0.51882 0.04197 0.55506 0.23091 0.23092 0.12326-0.21148 0.39713-0.48536 0.6086-0.60861zm-0.84632-2.2779c0-0.94363-0.0611-1.0928-0.44757-1.0928-0.39238 0-0.44757 0.1492-0.44757 1.2099 0 1.0997 0.04076 1.1992 0.44757 1.0928 0.37049-0.0969 0.44757-0.30525 0.44757-1.2099zm-7.2969-0.99923c0.074709-0.19469 0.13583-0.75694 0.13583-1.2495 0-0.9765 0.45216-1.1153 0.6671-0.20482 0.11976 0.50733 0.12076 0.50744 0.52664 0.0589 0.3976-0.43936 0.38769-0.46224-0.4455-1.0284-1.2326-0.83758-1.4196-0.76647-1.4196 0.53987 0 1.0835-0.020401 1.1189-0.64395 1.1189-0.79833 0-1.3972 0.5993-0.90815 0.90877 0.54642 0.34576 1.9365 0.24999 2.0876-0.14382zm7.2558-1.6022c-0.0427-0.37002-0.22623-0.64298-0.46243-0.68777-0.30413-0.0577-0.39162 0.0794-0.39162 0.6135 0 0.54593 0.09535 0.68775 0.46243 0.68775 0.37215 0 0.44861-0.11977 0.39162-0.61348zm0.13699-1.7522c0.39901-0.39902 0.46038-0.76726 0.12788-0.76726-0.12308 0-0.22378 0.10075-0.22378 0.22378 0 0.3099-0.74819 0.28122-1.0704-0.041-0.14565-0.14565-0.31921-0.2104-0.3857-0.14392-0.21072 0.21072 0.13672 0.8269 0.52411 0.92949 0.63191 0.16735 0.66622 0.16064 1.0279-0.20106z" stroke-width=".22378"/>
 </g>
</svg>
