<svg version="1.1" viewBox="0 0 13.229 13.229" xmlns="http://www.w3.org/2000/svg">
 <g transform="translate(0 -283.77)">
  <path d="m1.5146 296.69c-1.0646-0.54525-1.3518-1.5834-0.83213-3.007 0.39467-1.0811 0.70004-1.2704 1.2164-0.75407 0.23075 0.23075 0.36261 0.23075 0.59336 0 0.40072-0.40071 0.93949-0.37554 0.93949 0.044 0 0.62457 0.72335 1.026 1.2529 0.69529 0.25907-0.1618 0.67046-0.29417 0.91419-0.29417 0.55529 0 3.5193-2.9588 3.5193-3.5131 0-0.22513 0.2153-0.47767 0.47844-0.56119 0.53113-0.16857 1.0715-1.6014 1.4857-3.9393 0.29985-1.6924 0.36898-1.8046 0.86037-1.3968 0.5969 0.49539 0.94638 1.9516 0.83568 3.4822-0.08936 1.2354-0.23164 1.5778-1.0168 2.4468-0.50207 0.55572-0.91285 1.1132-0.91285 1.2388 0 0.12561-0.13907 0.26436-0.30904 0.30833-0.32309 0.0836-3.7429 3.6218-3.9173 4.0529-0.05514 0.13633-0.46259 0.50228-0.90545 0.81325-1.0774 0.75651-3.1122 0.94252-4.2023 0.38413zm3.5036-0.47638c0.45786-0.34646 0.44804-0.3818-0.28979-1.0429-0.42004-0.37636-0.92791-0.81714-1.1286-0.97952-0.2007-0.1624-0.43187-0.44053-0.51372-0.61809-0.1171-0.25404-0.17955-0.25698-0.29304-0.0138-0.17106 0.36655-1.0919 0.41868-1.0919 0.0618 0-0.47131-0.37234-0.24016-0.67989 0.42207-0.46007 0.99064-0.38036 1.4638 0.34238 2.0323 0.78308 0.61598 2.9165 0.69659 3.6546 0.13809zm-2.2808-0.38591c0.048721-0.14619 0.19428-0.26578 0.32346-0.26578 0.12918 0 0.27474 0.11959 0.32346 0.26578 0.048721 0.14616-0.096833 0.26577-0.32346 0.26577-0.22663 0-0.37219-0.11961-0.32346-0.26577zm1.1888-0.0845c0-0.2153 0.17615-0.39145 0.39145-0.39145 0.4366 0 0.36056 0.53223-0.097863 0.68504-0.16147 0.0538-0.29359-0.0783-0.29359-0.29359zm-2.3097-0.0639c-0.089471-0.0895-0.16268-0.31102-0.16268-0.49233 0-0.3683 0.63733-0.45129 0.848-0.11043 0.16825 0.27225-0.46175 0.82633-0.68533 0.60276zm7.3714-3.8786c0.41152-0.38933 0.61695-0.66747 0.45652-0.61809-0.45805 0.14098-3.0459 2.6935-3.0459 3.0043 0 0.15341 0.41427-0.16146 0.9206-0.69971 0.50633-0.53826 1.2573-1.2972 1.6688-1.6865zm2.533-2.3415c0.77996-1.055 1.0945-2.4501 0.79942-3.5459-0.32838-1.2195-0.81751-1.5398-0.60269-0.3947 0.16433 0.87595-0.45371 3.5193-0.88519 3.786-0.28351 0.17522-0.30759 0.85529-0.03028 0.85529 0.11041 0 0.43384-0.31528 0.71874-0.70064zm-8.86 2.307c-1.3547-0.73622-1.2271-4.5732 0.1521-4.5732 0.5934 0 0.65559-0.45754 0.13321-0.97992-0.69317-0.69318-0.67781-1.7397 0.025537-1.7397 0.29096 0 0.68043 0.1947 0.8655 0.43267 0.32046 0.41204 0.34883 0.41204 0.59582 0 0.14263-0.23797 0.53195-0.43267 0.86513-0.43267 0.77451 0 0.81542 0.76807 0.090031 1.6902-0.4837 0.61493-0.48889 0.67115-0.0835 0.90431 1.2781 0.73511 1.6662 1.9762 1.1825 3.7816-0.30457 1.137-2.4674 1.6551-3.8264 0.91659zm1.018-0.65866c0-0.15864-0.070259-0.21818-0.15612-0.13231-0.085865 0.0858-0.39182 0.0305-0.67989-0.12289-0.47192-0.25139-0.49018-0.2383-0.18445 0.13232 0.39024 0.47306 1.0205 0.54896 1.0205 0.12288zm2.2056-0.66513c-0.012437-0.25892-0.064924-0.29359-0.14473-0.0956-0.068867 0.17082-0.20842 0.25916-0.31013 0.1963-0.1017-0.0629-0.18491 0.0371-0.18491 0.22213 0 0.18502 0.14834 0.27948 0.32964 0.2099 0.1813-0.0696 0.32086-0.30928 0.31013-0.5327zm-2.4221-0.3486c-0.24417-0.24236-0.27257-0.21396-0.1384 0.1384 0.092844 0.24382 0.23109 0.38104 0.30721 0.30492 0.076118-0.0762 1.56e-4 -0.27561-0.16881-0.44332zm-0.71492-0.28885c0.063307-0.33116 0.022352-0.74835-0.091013-0.92712-0.13138-0.20718-0.20748 0.0111-0.20989 0.6021-0.0043 1.0599 0.13222 1.2074 0.3009 0.32502zm2.5951 0.20549c-0.082154-0.0822-0.29539-0.0909-0.47386-0.0195-0.19723 0.079-0.13864 0.1375 0.14937 0.14938 0.26063 0.0107 0.40665-0.0478 0.32449-0.12987zm-0.72419-0.88899c0.45346-0.45347 0.36333-0.56865-0.44502-0.56865-0.80835 0-0.89848 0.11518-0.44502 0.56865 0.3718 0.37179 0.51823 0.37179 0.89004 0z" stroke-width=".24723"/>
 </g>
</svg>
