<svg version="1.1" viewBox="0 0 50 50" xmlns="http://www.w3.org/2000/svg">
 <g transform="translate(-50.145 -176.44)">
  <path d="m54.186 226.51c-1.7487-0.47491-2.8763-1.3736-3.5452-2.8255-0.38445-0.83444-0.38485-0.84346-0.38485-8.6873v-7.852l0.39917-0.88338c0.49105-1.0867 1.567-2.0653 2.834-2.5776 0.92822-0.37533 1.0679-0.38226 8.6701-0.43101l7.7267-0.0495v-18.529h-2.673v-8.1861h28.234v8.1861h-2.3389v16.99l0.71002 0.30686c1.2507 0.54051 2.9311 1.7403 3.8082 2.719 1.0033 1.1194 2.0044 3.1218 2.4383 4.8769 0.44174 1.7869 0.44174 6.5664 0 8.3532-1.0757 4.3511-3.7778 7.0119-8.5436 8.4132-1.1438 0.33632-1.5554 0.34472-18.795 0.38415-15.166 0.0348-17.753 6e-3 -18.54-0.20813zm15.7-11.513v-8.9379h-7.1837v17.876h7.1837zm-4.8448 5.346v-1.253h2.506v2.506h-2.506zm0-5.179v-1.253h2.506v2.506h-2.506zm0-5.179v-1.253h2.506v2.5059h-2.506zm20.217 10.4c0.0028-4.9968 0.17-5.5291 2.5339-8.0656 2.0819-2.234 2.3433-2.8464 2.4401-5.7172l0.07464-2.2136h-17.58v7.1837h5.0119v12.363h7.5179l0.0019-3.5501zm-5.0139-1.2948v-2.3389h2.673v4.6778h-2.673zm10.024-18.711v-1.1694h-2.506v-2.5059h2.506v-2.1718h-17.542v2.1718h4.8448v2.5059h-4.8448v2.3389h17.542zm-9.8568-2.4224v-1.253h4.8448v2.5059h-4.8448zm9.8568-9.7732v-3.5083h-17.542v7.0167h17.542zm-15.036-0.0837v-1.253h2.506v2.506h-2.506zm5.0119 0v-1.253h2.506v2.506h-2.506zm5.0119 0v-1.253h2.506v2.506h-2.506zm7.3508-7.5178v-1.253h-22.554v2.506h22.554z" stroke-width=".16706"/>
 </g>
</svg>
