<svg version="1.1" viewBox="0 0 13.229 13.229" xmlns="http://www.w3.org/2000/svg">
 <g transform="translate(0 -283.77)">
  <path d="m7.5176 296.65c-0.41326-0.2923-0.97943-0.97249-1.2582-1.5115l-0.50681-0.98008-1.6453 0.83375c-0.90494 0.45855-1.8128 0.83374-2.0174 0.83374-0.25942 0-0.33842-1.2012-0.2609-3.9674 0.10802-3.8549 0.14007-4.0031 1.1297-5.2247 1.8461-2.2787 2.5556-2.62 5.7226-2.7525l2.8623-0.11973-1.2922 1.7603c-1.1163 1.5206-1.3106 2.0506-1.428 3.8932-0.078557 1.234 0.011331 2.2803 0.21388 2.4826 0.2442 0.2442 0.24055 0.52447-0.01259 0.92902-0.52735 0.8444-0.099709 1.6031 0.97279 1.7261 0.82685 0.0948 0.93568 0.24289 0.93568 1.2731 0 1.1223-0.04973 1.1694-1.3324 1.2607-0.81973 0.0584-1.6215-0.10965-2.0837-0.43659zm1.5841-0.82412c0-0.1832-0.066094-0.33308-0.14689-0.33308-0.080823 0-0.23953 0.14988-0.35276 0.33308-0.11318 0.18321-0.047084 0.3331 0.14689 0.3331 0.19402 0 0.35276-0.14989 0.35276-0.3331zm-0.9568-0.88727c0.41453-0.5025 0.38728-0.51693-0.29231-0.15483-0.77509 0.41301-0.96595 0.70902-0.45715 0.70902 0.16077 0 0.49802-0.24939 0.74946-0.55419zm-4.4224-0.4777 1.049-0.36567 0.00123-2.7154c0.00126-3.1807 0.5047-4.268 2.7358-5.9111l1.4267-1.0507-1.6107 0.17015c-1.824 0.19266-3.6194 1.6058-4.4247 3.4825-0.39733 0.92601-0.6934 6.7559-0.34309 6.7559 0.064332 0 0.5889-0.16455 1.1658-0.36569zm4.2459-0.87865c-0.19744-0.19745-1.1983 0.31757-1.1983 0.61661 0 0.16516 0.29297 0.11733 0.65104-0.10625 0.35807-0.22361 0.60437-0.45325 0.54731-0.5103zm-0.53217-4.7514c0-0.18321-0.066095-0.3331-0.14688-0.3331-0.080823 0-0.23954 0.14989-0.35276 0.3331-0.11318 0.18319-0.047084 0.33308 0.14688 0.33308 0.19402 0 0.35276-0.14989 0.35276-0.33308z" stroke-width=".33309"/>
 </g>
</svg>
