<svg version="1.1" viewBox="0 0 13.229 13.229" xmlns="http://www.w3.org/2000/svg">
 <g transform="translate(0 -283.77)">
  <path d="m1.215 296.17c0.016982-0.45163 0.18101-0.90518 0.36452-1.0079 0.4765-0.26667 0.25574-1.0869-0.26791-0.99539-0.23165 0.0405-0.57692 0.0138-0.76725-0.0592-0.29421-0.11289-0.27443-0.25419 0.13197-0.943 0.46289-0.78455 0.46403-0.81022 0.035856-0.81022-0.63438 0-0.73924-0.29871-0.56526-1.6103 0.14514-1.0942 0.19965-1.1703 0.93636-1.3085 0.56052-0.1051 0.78224-0.27087 0.78224-0.58463 0-0.35629-0.17278-0.43789-0.92737-0.43789h-0.92737v-1.7294c0-1.5872 0.052233-1.7779 0.63519-2.3184 0.80867-0.74985 1.6236-0.78166 1.7251-0.0674 0.079958 0.56298 0.08731 0.56546 1.8129 0.60859l1.1592 0.029v0.81145c0 0.44629-0.10433 0.81145-0.23184 0.81145-0.1288 0-0.23184 0.61823-0.23184 1.391 0 1.232 0.052505 1.391 0.45927 1.391 0.57807 0 0.80484 0.81779 0.63217 2.2798-0.087681 0.7424-0.024351 1.2231 0.20184 1.5319 0.29482 0.40253 0.32962 0.25144 0.32962-1.4312 0-1.6812-0.063239-1.9564-0.59477-2.5881-0.42461-0.50461-0.57385-0.91803-0.52164-1.445 0.062091-0.62663 0.21086-0.78556 0.98512-1.0524 0.5016-0.17282 1.0836-0.46955 1.2934-0.65939 0.55628-0.50342 2.8681-0.46317 3.4788 0.0606 0.26019 0.22315 0.8091 0.5187 1.2198 0.65677 1.0166 0.34176 1.1412 1.3854 0.2975 2.4915-0.52607 0.68971-0.59404 0.99672-0.59404 2.6832 0 1.7915-0.04354 1.9586-0.73433 2.8182-0.69673 0.86698-0.80059 0.91376-2.0286 0.91375-1.1931 0-1.3433-0.0614-1.9209-0.78534-0.52111-0.65311-0.75535-0.77272-1.391-0.71032-0.42043 0.0413-0.89483 0.0817-1.0542 0.0898-0.18953 0.01-0.2898 0.39981-0.2898 1.1276 0 0.61207-0.12519 1.238-0.27821 1.391-0.15722 0.15722-0.91034 0.27822-1.7318 0.27822h-1.4535zm9.6734-2.0463c0.36189-0.58555 0.48259-1.1654 0.48259-2.3184v-1.5376h-1.8547v2.3184c0 2.131 0.035951 2.3184 0.44477 2.3184 0.25491 0 0.65078-0.33334 0.92737-0.78086zm-0.63406-2.5881c0.09496-0.75954 0.51545-0.75954 0.6104 0 0.05228 0.41823-0.0354 0.58682-0.3052 0.58682-0.2698 0-0.35748-0.16859-0.3052-0.58682zm-4.9148 1.804c-0.013074-0.64025-0.52465-0.87034-1.9721-0.88699-1.2338-0.0143-1.571 0.0611-1.7473 0.39048-0.12012 0.22443-0.21839 0.46709-0.21839 0.53923 0 0.0722 0.88679 0.13117 1.9707 0.13117 1.0839 0 1.9691-0.0782 1.9671-0.17389zm3.713-5.2744c0-1.5666-0.04456-1.7388-0.45-1.7388-0.2475 0-0.52106 0.11497-0.60791 0.25549-0.086843 0.14053-0.51032 0.40275-0.94105 0.58272-0.92516 0.38656-1.0149 0.96729-0.30367 1.9661 0.39005 0.54777 0.64947 0.67335 1.391 0.67335h0.91158zm-1.2525 1.1046c-0.076223-0.0763-0.13859-0.38202-0.13859-0.67955 0-0.38639 0.13248-0.54096 0.46368-0.54096 0.33451 0 0.46368 0.15457 0.46368 0.5548 0 0.53232-0.5001 0.95439-0.78878 0.66571zm-6.1275-3.0758c0.042341-0.89287 0.033034-1.6232-0.02068-1.6229-0.053714 3e-4 -0.28846 0.17319-0.52164 0.38422-0.31 0.28055-0.42398 0.71682-0.42398 1.6229 0 1.067 0.061803 1.2392 0.44466 1.2392 0.38865 0 0.45435-0.20448 0.52164-1.6234z" stroke-width=".23184"/>
 </g>
</svg>
