<svg version="1.1" viewBox="0 0 13.229 13.229" xmlns="http://www.w3.org/2000/svg">
 <g transform="translate(0 -283.77)">
  <path d="m5.6977 296.74c-0.18105-0.18106-0.27442-1.1535-0.27442-2.8585v-2.5841h-1.212c-1.2573 0-1.7608-0.26924-1.7608-0.94148 0-0.21598-0.4228-0.74387-0.93956-1.1731l-0.93956-0.78043 0.93956-0.74417c0.51676-0.40927 0.93956-0.92072 0.93956-1.1365 0-0.65524 0.49489-0.94126 1.6287-0.94126 0.98432 0 1.1521-0.0844 1.8966-0.95423 0.44923-0.52482 0.85121-0.91071 0.89327-0.85754 0.042066 0.0533 0.36363 0.48258 0.71459 0.95424 0.59796 0.80359 0.71467 0.85753 1.8552 0.85753 1.2259 0 1.5378 0.18807 1.5948 0.96172 0.02506 0.34025 0.54107 0.8703 1.575 1.6178 0.15774 0.11403-0.06775 0.4572-0.62506 0.95127-0.4795 0.4251-0.94959 1.0652-1.0446 1.4224-0.16346 0.61425-0.24946 0.65316-1.5865 0.71756l-1.4137 0.0682v2.5732c0 2.8285-0.11824 3.122-1.2577 3.122-0.3899 0-0.83239-0.12351-0.98332-0.27441zm1.513-1.2487c-0.10602-0.89142-0.87274-0.94186-0.87274-0.0573 0 0.52047 0.10314 0.66579 0.47255 0.66579 0.37733 0 0.45797-0.12257 0.40019-0.60839zm-0.015082-3.908c0.055824-0.16766-0.1018-0.28584-0.38124-0.28584-0.2809 0-0.47642 0.14765-0.47642 0.35979 0 0.42027 0.71358 0.35876 0.85765-0.074zm0.7431-3.373v-0.80036h-2.2868v1.6008h2.2868zm-1.8294 0.11435c0-0.33539 0.15245-0.45736 0.5717-0.45736 0.41925 0 0.5717 0.12197 0.5717 0.45736 0 0.3354-0.15245 0.45736-0.5717 0.45736-0.41925 0-0.5717-0.12196-0.5717-0.45736zm-3.6589 0.11433c0-0.18866-0.10291-0.34301-0.22868-0.34301-0.12577 0-0.22868 0.15435-0.22868 0.34301 0 0.18867 0.10291 0.34303 0.22868 0.34303 0.12577 0 0.22868-0.15436 0.22868-0.34303zm9.0231 0.13016c0.07236-0.11708 0.02699-0.27752-0.10084-0.35654-0.12782-0.079-0.23241 0.0167-0.23241 0.21289 0 0.40168 0.13722 0.46083 0.33326 0.14365z" stroke-width=".22868"/>
 </g>
</svg>
