<svg version="1.1" viewBox="0 0 13.229 13.229" xmlns="http://www.w3.org/2000/svg">
 <g transform="translate(0 -283.77)">
  <path d="m3.7463 294.37c0-1.9937 0.037285-2.1883 0.43952-2.2935 0.37886-0.0991 0.43952-0.29974 0.43952-1.4541 0-0.74624 0.097295-1.3391 0.21976-1.3391 0.12087 0 0.21976-0.0989 0.21976-0.21976 0-0.12087-0.17578-0.21975-0.39062-0.21975-0.21484 0-0.61058-0.15407-0.87942-0.34238-0.69479-0.48665-0.89946-0.24642-0.77856 0.9138 0.19586 1.8795-0.45722 2.6283-2.1513 2.4664-0.66574-0.0636-0.75205-0.14855-0.81473-0.80196-0.057111-0.59536 0.017949-0.75385 0.40497-0.85505 0.40302-0.10539 0.45272-0.22787 0.32772-0.80748-0.33705-1.5628-0.36958-2.9065-0.076173-3.1463 0.45467-0.37153 2.5875-0.94324 3.519-0.94324 0.74858 0 0.83915-0.0593 0.83915-0.54939 0-0.53369 0.043955-0.54939 1.5383-0.54939 1.4944 0 1.5383 0.0156 1.5383 0.54939 0 0.49092 0.090089 0.54939 0.84624 0.54939 0.80531 0 1.5595 0.18185 2.9746 0.71723l0.63433 0.23998-0.12421 1.9172c-0.11436 1.7651-0.09059 1.926 0.29964 2.028 0.31944 0.0836 0.42385 0.30538 0.42385 0.90056v0.78973h-1.2087c-0.92787 0-1.2087 0.0766-1.2087 0.32964 0 0.1813 0.18696 0.32964 0.41547 0.32964 0.3119 0 0.43805 0.19341 0.50605 0.77586 0.04982 0.42673 0.04416 0.8223-0.01259 0.87904-0.05673 0.0567-0.57572 0.10316-1.1533 0.10316h-1.0501l-0.066978 1.0439-0.066978 1.0438-5.6038 0.123zm4.8347-0.0322c0-1.4944-0.015698-1.5383-0.5494-1.5383-0.48138 0-0.5494 0.0953-0.5494 0.76914 0 0.75084-0.020931 0.76916-0.87903 0.76916-0.8581 0-0.87903-0.0184-0.87903-0.76916 0-0.67392-0.068024-0.76914-0.5494-0.76914-0.5337 0-0.5494 0.0439-0.5494 1.5383v1.5383h3.9556zm1.5383-2.2352c-0.06893-0.85067-0.21433-1.377-0.39007-1.412-0.15411-0.0307-0.17883-6e-3 -0.054942 0.056 0.12389 0.0615 0.22525 0.69681 0.22525 1.4119s0.074172 1.3002 0.16482 1.3003c0.09064 2e-5 0.11537-0.61029 0.05494-1.3562zm-1.1858-0.56211c-0.22339-0.22338-0.40771 0.11294-0.22442 0.4095 0.13846 0.22402 0.19022 0.2242 0.26465 8.2e-4 0.050898-0.15268 0.03279-0.33735-0.04023-0.41037zm-3.169-0.20221c0.14781-1.2375 1.5296-1.2375 1.6774 0 0.11513 0.9639 0.47986 0.65474 0.47986-0.40674v-0.98892h-2.6371v0.98892c0 1.0615 0.36473 1.3706 0.47986 0.40674zm-3.6026-1.998c0.060541-1.7186 0.091455-1.818 0.60594-1.9471 0.33541-0.0841 0.75102 8e-4 1.0899 0.22286l0.54779 0.35893v-0.8841c0-0.84423-0.031064-0.88409-0.68872-0.88409-0.3788 0-1.0841 0.11845-1.5674 0.26324l-0.87867 0.26326 0.13903 1.8087c0.1115 1.4505 0.073739 1.874-0.19068 2.1384-0.47904 0.47905-0.40791 0.61905 0.27463 0.54052 0.59876-0.0689 0.60492-0.0862 0.66813-1.8806zm10.155 1.754c0-0.0918-0.20795-0.29676-0.46212-0.45549-0.37568-0.23461-0.43414-0.41918-0.31255-0.98683 0.08226-0.38403 0.19942-1.1993 0.26037-1.8118l0.1108-1.1136-0.8676-0.25993c-0.47718-0.14297-1.1663-0.25994-1.5314-0.25994-0.57165 0-0.6774 0.0928-0.76196 0.66894-0.11108 0.75682 0.13883 1.0304 0.59522 0.65165 0.16935-0.14055 0.53586-0.22323 0.81447-0.18374 0.47016 0.0666 0.51126 0.18951 0.57203 1.7102 0.03602 0.9011 0.17174 1.7664 0.30161 1.9229 0.25168 0.30326 1.2811 0.39778 1.2811 0.11762zm-2.1976-2.1406c0-0.42304-0.04608-0.76916-0.10242-0.76916-0.08789 0-1.622 0.66866-1.8426 0.80312-0.28201 0.17188 0.64615 0.71999 1.2308 0.72683 0.67133 8e-3 0.71421-0.0378 0.71421-0.76079zm-3.0187-0.0449c-0.27029-0.0522-0.76474-0.0534-1.0988-3e-3 -0.33405 0.0505-0.1129 0.0932 0.49143 0.0949 0.60434 2e-3 0.87765-0.0397 0.60736-0.0918zm0.82107-1.7579v-0.94422h-2.6371l6.64e-5 1.8679 2.637 0.0204zm-0.82409-2.1981c-0.27195-0.0525-0.71696-0.0525-0.98891 0-0.27195 0.0524-0.049444 0.0953 0.49446 0.0953 0.5439 0 0.76641-0.0428 0.49446-0.0953z" stroke-width=".21976"/>
 </g>
</svg>
