<svg version="1.1" viewBox="0 0 13.229 13.229" xmlns="http://www.w3.org/2000/svg">
 <g transform="translate(0 -283.77)">
  <path d="m2.4095 296.59c-0.078459-0.20446-0.14265-0.78613-0.14265-1.2926v-0.92084h-1.0576c-0.91227 0-1.0576-0.0666-1.0576-0.4857 0-0.26714 0.25013-0.82237 0.55585-1.2338 0.81859-1.1017 1.302-2.7662 1.6847-5.8009 0.18747-1.4865 0.34169-2.782 0.34273-2.8789 0.00106-0.0969 0.25914-0.17625 0.57358-0.17625 0.67921 0 0.74986 0.19973 0.95594 2.7026 0.085138 1.0341 0.26681 2.356 0.40371 2.9377 0.31014 1.3177 1.3189 3.5252 1.6109 3.5252 0.38395 0 0.26194-3.1962-0.13457-3.5252-0.19993-0.16593-0.35252-0.67828-0.35252-1.1837 0-0.81662 0.098534-0.95175 1.1786-1.6163 0.93974-0.57823 1.4391-0.72519 2.4641-0.72519 1.025 0 1.5244 0.14696 2.4641 0.72519 1.0801 0.66458 1.1786 0.79971 1.1786 1.6163 0 0.50541-0.15259 1.0178-0.35252 1.1837-0.25908 0.21502-0.35252 0.78619-0.35252 2.1548v1.8622l-0.99881 1.0457c-0.85255 0.8926-1.135 1.0459-1.929 1.0467-0.75806 7.7e-4 -1.0968-0.16181-1.831-0.8787-0.60485-0.59062-0.95658-0.78941-1.0705-0.60505-0.093337 0.15103-0.59136 0.30891-1.1067 0.35085l-0.93701 0.0763-0.071033 1.2338-0.071033 1.2338h-0.90263c-0.60628 0-0.94947-0.12204-1.0453-0.37174zm1.2674-1.1559c0-0.57448-0.10632-0.82255-0.35252-0.82255-0.24621 0-0.35252 0.24807-0.35252 0.82255s0.10632 0.82255 0.35252 0.82255c0.24621 0 0.35252-0.24807 0.35252-0.82255zm7.2611-1.4183c0.66948-0.7625 0.73-0.97 0.73686-2.5264 0.0049-1.1171 0.12521-1.8513 0.35252-2.1519 0.18978-0.25091 0.34505-0.7511 0.34505-1.1115 0-0.52687-0.18246-0.74843-0.9307-1.1302-0.51188-0.26114-1.1993-0.4748-1.5276-0.4748h-0.5969v4.1128c0 3.8812 0.02509 4.1128 0.44568 4.1128 0.24513 0 0.77391-0.37382 1.1751-0.83072zm-1.0396-4.8199c-0.083389-0.13491-0.031617-0.38989 0.11505-0.56661 0.18331-0.22088 0.18964-0.36891 0.02024-0.47361-0.49914-0.30848-0.22227-0.53049 0.66158-0.53049 0.89733 0 0.90801 0.0106 0.90801 0.90801 0 0.93999-0.13021 1.0897-0.56742 0.65252-0.18398-0.18399-0.29969-0.18399-0.4134 0-0.1998 0.32329-0.52771 0.32789-0.72406 0.0102zm-4.1064 4.2876c0-0.53946-0.69486-0.75205-2.4581-0.75205-1.6396 0-1.9335 0.0631-2.1876 0.47004-0.28655 0.45882-0.23471 0.47003 2.1761 0.47003 1.3583 0 2.4696-0.0846 2.4696-0.18802zm1.8801-3.2197c0-3.3144-0.080253-3.5428-0.99942-2.8451-0.30759 0.23348-0.37429 0.50061-0.26341 1.055 0.081656 0.40828 0.24056 0.79926 0.35313 0.86882 0.11256 0.0695 0.20466 0.8519 0.20466 1.7385 0 1.6835 0.14127 2.3555 0.49517 2.3555 0.11543 0 0.20987-1.4277 0.20987-3.1727zm-3.3025 0.25089c-0.23055-0.83143-0.53852-2.4932-0.68438-3.6928-0.14586-1.1996-0.29833-2.2142-0.33883-2.2547-0.040504-0.0405-0.14422 0.69588-0.2305 1.6364-0.14189 1.5469-0.58129 3.9086-0.98492 5.294-0.1476 0.5066-0.095108 0.52878 1.2519 0.52878h1.4059z" stroke-width=".23501"/>
 </g>
</svg>
