<svg version="1.1" viewBox="0 0 13.229 13.229" xmlns="http://www.w3.org/2000/svg">
 <g transform="translate(0 -283.77)">
  <path d="m5.27 296.64c-0.21749-0.56676-0.16268-1.7073 0.11955-2.4878 0.21678-0.5995 0.16205-1.0398-0.3423-2.7541-0.33018-1.1223-0.60031-2.3742-0.60028-2.7821 2.84e-5 -0.40783-0.098757-0.74152-0.21953-0.74152-0.13208 0-0.16503 0.58418-0.082672 1.4661 0.12278 1.3148 0.08068 1.5372-0.40787 2.1549-0.4418 0.55861-0.72055 0.69122-1.4747 0.70145-1.213 0.0165-1.9221-0.68549-1.9221-1.9028 0-0.79062 0.072911-0.88791 0.91265-1.2178 0.81599-0.32052 0.91265-0.4408 0.91265-1.1357 0-1.0473 1.6551-2.8597 2.6434-2.8947 0.54875-0.0194 0.67761-0.13321 0.73718-0.65098 0.064883-0.56389 0.16159-0.62745 0.95453-0.62745 0.79294 0 0.88965 0.0636 0.95453 0.62745 0.061977 0.53866 0.17686 0.62853 0.81191 0.63519 1.1057 0.0116 2.7959 1.7233 2.7991 2.8347 0.0021 0.72563 0.09522 0.84711 0.91265 1.1904 0.84069 0.35309 0.91033 0.4504 0.91033 1.2722 0 1.1585-0.72471 1.882-1.8851 1.882h-0.82898l-0.06896 1.1978-0.06896 1.1978-0.96969 0.0702c-0.95558 0.0692-0.96969 0.0827-0.96969 0.92405 0 0.46964-0.12321 0.9771-0.27379 1.1277-0.42047 0.42047-2.3848 0.35346-2.5538-0.0871zm1.8378-1.1792c-0.23697-1.6204-0.43144-2.3387-0.63319-2.3387-0.11125 0-0.20227 0.22373-0.20227 0.49717s-0.11862 0.8252-0.2636 1.2261c-0.34578 0.95625-0.1279 1.471 0.62265 1.471 0.56524 0 0.59398-0.0517 0.47641-0.85561zm2.1042-2.1675c-0.01992-0.38631-0.052288-0.41455-0.13081-0.11407-0.11776 0.45059-0.89693 0.54501-1.0367 0.1256-0.057061-0.17116-0.14695-0.12844-0.24001 0.11409-0.1224 0.31896-0.00837 0.38775 0.64261 0.38775 0.67645 0 0.78756-0.0746 0.76494-0.51337zm-2.9994-1.3596c-0.076671-0.71102 0.67987-0.84113 0.79528-0.13677 0.13036 0.79559 1.0897-2.3775 1.0897-3.6042v-1.0027h-2.9661v1.2143c0 0.66783 0.16278 1.7202 0.36172 2.3386 0.19895 0.61842 0.40107 1.2528 0.44916 1.4096 0.14436 0.47085 0.32848 0.32174 0.27019-0.2188zm2.2273 0.27585c0.077561-0.1255 0.39746-0.22817 0.71089-0.22817 0.54333 0 0.55333-0.0236 0.2147-0.50709-0.24311-0.34708-0.35518-1.0353-0.35518-2.181 0-1.0578-0.083978-1.622-0.22816-1.5329-0.12549 0.0776-0.22816 0.58066-0.22816 1.118 0 0.53736-0.1529 1.481-0.33977 2.097-0.18688 0.61602-0.34088 1.197-0.34224 1.2912-0.00362 0.25002 0.40343 0.20914 0.56794-0.057zm-5.264-1.043c0.25884-0.25884 0.35854-0.81052 0.35854-1.9839 0-1.4531 0.065004-1.6932 0.61309-2.2653 0.57179-0.59681 0.73618-0.63992 2.4403-0.63992 1.672 0 1.8815 0.0521 2.4671 0.61309 0.58153 0.55713 0.63993 0.75853 0.63993 2.2066 0 1.1626 0.10211 1.7064 0.37761 2.0108 0.75078 0.8296 2.1322 0.35562 2.1322-0.73158 0-0.37206-0.04294-0.67647-0.09542-0.67647s-0.25272-0.0604-0.44498-0.13414c-0.26876-0.10313-0.339 0.0156-0.30386 0.51337 0.03603 0.51063-0.05076 0.6475-0.41062 0.6475-0.40975 0-0.46322-0.17463-0.52392-1.7112-0.06409-1.6225-0.11084-1.7555-0.90191-2.5668l-0.83432-0.85561h-4.1499l-0.83432 0.85561c-0.79107 0.81127-0.83782 0.9443-0.90191 2.5668-0.060692 1.5366-0.11416 1.7112-0.52392 1.7112-0.35986 0-0.44666-0.13687-0.41062-0.6475 0.035141-0.49784-0.035098-0.6165-0.30386-0.51337-0.19226 0.0738-0.3925 0.13414-0.44498 0.13414-0.2218 0-0.072239 1.3009 0.17837 1.5515 0.38765 0.38765 1.4531 0.33955 1.8774-0.0849zm3.5528-6.4863c0-0.12549-0.10267-0.22816-0.22816-0.22816-0.12549 0-0.22816 0.10267-0.22816 0.22816s0.10267 0.22816 0.22816 0.22816c0.12549 0 0.22816-0.10267 0.22816-0.22816z" stroke-width=".22816"/>
 </g>
</svg>
