<svg version="1.1" viewBox="0 0 13.229 13.229" xmlns="http://www.w3.org/2000/svg">
 <g transform="translate(0 -283.77)">
  <path d="m1.1401 296.33c-0.48838-0.34207-1.151-1.4077-1.151-1.8511 0-0.12738 0.32334-0.23159 0.71853-0.23159 1.8569 0 3.3026-0.87731 5.3903-3.2711 1.3262-1.5206 1.3966-1.6543 1.0648-2.0209-0.23838-0.2634-0.30762-0.58271-0.21037-0.97017 0.17041-0.67897-0.12673-0.74575-1.0879-0.24445-0.7864 0.41013-4.2079 0.70633-4.4086 0.38165-0.07752-0.12543-0.076219-0.84735 0.00292-1.6043 0.10966-1.0492 0.23565-1.4002 0.53019-1.4772 0.21249-0.0555 0.43587-0.29043 0.4964-0.52191 0.16198-0.6194 0.86331-0.51279 1.5855 0.24103 0.34878 0.36406 0.80829 0.66191 1.0211 0.66191 0.21284 0 0.44834 0.0993 0.52334 0.22065 0.15646 0.25315 4.0812 0.30618 4.0829 0.0551 5.96e-4 -0.091 0.22958-0.45101 0.50884-0.8 0.49141-0.61411 0.5288-0.62365 1.1618-0.29629 0.35975 0.18604 0.92793 0.61208 1.2626 0.94677l0.60853 0.60853-0.52246 0.5703c-0.28735 0.31368-0.74756 0.89833-1.0227 1.2992-0.45756 0.66674-0.47064 0.76164-0.1533 1.1123 0.31658 0.34982 0.30926 0.44531-0.08361 1.0913-0.29182 0.47985-0.60076 0.70797-0.9588 0.70797-0.35384 0-0.78201 0.30962-1.2968 0.93771-1.4365 1.7527-3.703 3.8044-4.7499 4.2996-1.22 0.57704-2.6165 0.64236-3.3124 0.15492zm2.5232-0.55102c0.94989-0.36115 2.4034-1.648 4.0636-3.5975 1.0276-1.2067 1.4294-1.8307 1.2501-1.9415-0.16717-0.10332-0.9454 0.56676-2.1192 1.8247-2.0864 2.236-3.6661 3.2807-4.9652 3.2839-0.73435 2e-3 -0.81581 0.0485-0.57974 0.33303 0.31957 0.38505 1.4687 0.43272 2.3504 0.0975zm7.137-6.1312c0-0.20124-2.3538-1.7989-2.6503-1.7989-0.58208 0-0.08996 0.63338 1.0507 1.3522 1.171 0.73801 1.5996 0.85769 1.5996 0.44666z" stroke-width=".22064"/>
 </g>
</svg>
