<svg version="1.1" viewBox="0 0 13.229 13.229" xmlns="http://www.w3.org/2000/svg">
 <g transform="translate(0 -283.77)">
  <path d="m6.1403 296.95c-0.44728-0.0598-0.63328-0.21755-0.63328-0.53714 0-0.24888-0.15544-0.51216-0.34543-0.58506-0.24796-0.0951-0.34543-0.48298-0.34543-1.3745 0-0.68305-0.10363-1.2419-0.23028-1.2419s-0.23028 0.25908-0.23028 0.57572c0 0.53613-0.077941 0.57571-1.1337 0.57571-1.3887 0-2.4187-0.7539-2.7731-2.0298-0.12965-0.46682-0.23631-2.2736-0.23702-4.0152l-0.001306-3.1664h1.7271c1.3817 0 1.7271-0.0691 1.7271-0.34543 0-0.28702 0.44777-0.34542 2.6483-0.34542h2.6483v0.80599c0 0.44329 0.10363 0.80599 0.23028 0.80599 0.12666 0 0.23028-0.5225 0.23028-1.1611v-1.1611l3.5694 0.1346 0.01371 2.5331 0.01372 2.5331-1.1573 1.209c-0.85371 0.89187-1.3254 1.209-1.7984 1.209-0.57922 0-0.64115-0.0778-0.64115-0.80598 0-1.4767-0.43846-0.83027-0.50762 0.74842-0.059458 1.3572-0.13384 1.5833-0.58623 1.7817-0.35745 0.15681-0.51814 0.42463-0.51814 0.86355 0 0.34994 0.10904 0.63624 0.24232 0.63624 0.14733 0 0.21503 0.46744 0.17271 1.1925-0.067049 1.1486-0.095003 1.1935-0.76046 1.2208-0.37997 0.0155-0.97583-0.0101-1.3241-0.0563zm1.4393-1.0903c0-0.59757-0.34958-0.79143-0.51907-0.28785-0.07553 0.22442-0.18127 0.21821-0.47976-0.0282-0.21058-0.17383-0.39583-0.25156-0.41166-0.17272-0.18605 0.92646-0.090992 1.0645 0.73323 1.0645 0.56889 0 0.67726-0.0921 0.67726-0.57571zm-0.46057-1.1514c0-0.18997-0.10363-0.34541-0.23028-0.34541s-0.23028 0.15544-0.23028 0.34541c0 0.19 0.10363 0.34544 0.23028 0.34544s0.23028-0.15544 0.23028-0.34544zm0-1.0227c0-0.11917-0.10363-0.28073-0.23028-0.35899-0.12666-0.0782-0.23028 0.0192-0.23028 0.21668 0 0.19746 0.10363 0.35902 0.23028 0.35902s0.23028-0.0975 0.23028-0.21671zm-3.6845-0.20817c0-0.10702-0.19971-0.37532-0.44379-0.59622-0.58786-0.53201-0.83295-2.0085-0.4383-2.6404 0.24204-0.38757 0.24529-0.57448 0.016345-0.94107-0.52111-0.83442-0.18322-3.2271 0.45573-3.2271 0.1138 0 0.14286 0.10362 0.064589 0.23028-0.078281 0.12666-0.032577 0.23029 0.10155 0.23029 0.13413 0 0.24387-0.15544 0.24387-0.34543 0-0.26517-0.29425-0.34542-1.2666-0.34542h-1.2666v3.2063c0 3.1134 0.017268 3.2268 0.59618 3.9148 0.41431 0.49239 0.80068 0.70852 1.2666 0.70852 0.36871 0 0.67038-0.0876 0.67038-0.19459zm1.1691-1.9816c0.28443-0.29273 0.27166-1.0478-0.017721-1.0478-0.12666 0-0.23028 0.0967-0.23028 0.21499 0 0.11824-0.28498 0.24778-0.63328 0.28786-0.52614 0.0606-0.6212 0.17026-0.56185 0.64857 0.039288 0.31664 0.29835 0.76977 0.57571 1.007 0.5011 0.42855 0.50476 0.42709 0.57957-0.23029 0.041412-0.36385 0.17094-0.76 0.28786-0.88032zm0.99972 0.88498c0.2163-0.083 0.35341-0.38701 0.33755-0.74842-0.02075-0.47271-0.050803-0.50577-0.13457-0.14808-0.059323 0.25332-0.27436 0.59011-0.47787 0.74843-0.40195 0.3127-0.29885 0.36824 0.27489 0.14807zm1.6836-0.22963c-0.076522-0.0765-0.27514-0.0847-0.44138-0.0181-0.18371 0.0735-0.12914 0.12808 0.13913 0.13912 0.24276 0.0101 0.37877-0.0443 0.30225-0.12095zm0.82245-0.56129c0.10249-0.39191 0.066256-0.42871-0.20249-0.20568-0.18002 0.14942-0.32731 0.42052-0.32731 0.60247 0 0.46322 0.37915 0.17927 0.52979-0.39679zm3.6729-2.2673c0.60452-0.54673 0.63328-0.67014 0.63328-2.7173v-2.1446l-0.97871 4.5e-4c-0.94246 4.4e-4 -0.98014 0.0282-1.0175 0.74843-0.02359 0.4546 0.02156 0.5948 0.11514 0.35745 0.14095-0.3575 0.20263-0.35083 0.72968 0.079 0.39496 0.32211 0.44543 0.42747 0.16075 0.33558-0.22822-0.0736-0.3589-0.0432-0.29039 0.0676 0.06852 0.11087-0.02974 0.32963-0.21832 0.48615-0.46915 0.38935-0.43001 0.75383 0.11768 1.0959 0.55606 0.34727 0.58152 0.65623 0.09424 1.1435-0.31132 0.31132-0.39786 0.31749-0.57635 0.0411-0.15557-0.24088-0.1915-0.19238-0.13856 0.18701 0.03931 0.28171 0.14233 0.58305 0.22893 0.66966 0.08661 0.0867 0.02883 0.32244-0.1284 0.52408-0.25713 0.32976-0.23957 0.33305 0.17471 0.0326 0.25331-0.18364 0.74554-0.59164 1.0938-0.90664zm-8.3478 0.43455c0-0.2533-0.094458-0.46056-0.20991-0.46056-0.1668 0-0.18383 0.38706-0.038 0.86356 0.07567 0.24724 0.2479-0.0327 0.2479-0.403zm5.9874-1.7271c0-0.31664-0.10363-0.57572-0.23028-0.57572-0.12666 0-0.23028 0.25908-0.23028 0.57572 0 0.31663 0.10363 0.57571 0.23028 0.57571 0.12666 0 0.23028-0.25908 0.23028-0.57571zm1.0784-0.15832c-0.07351-0.18371-0.12808-0.12914-0.13913 0.13912-0.01 0.24276 0.04444 0.37877 0.12095 0.30226 0.07653-0.0765 0.0847-0.27515 0.01818-0.44138z" stroke-width=".23028"/>
 </g>
</svg>
