<svg version="1.1" viewBox="0 0 13.229 13.229" xmlns="http://www.w3.org/2000/svg">
 <g transform="translate(0 -283.77)">
  <path d="m5.4573 296.41c0-0.32949 0.10783-0.59907 0.23962-0.59907 0.13179 0 0.23962-0.10778 0.23962-0.23963 0-0.13178-0.21566-0.23961-0.47925-0.23961-0.426 0-0.47925-0.15976-0.47925-1.4378 0-0.79874 0.1065-1.4377 0.23962-1.4377 0.13179 0 0.23962-0.43132 0.23962-0.9585 0-0.52717-0.10783-0.95849-0.23962-0.95849-0.13179 0-0.23962 0.43132-0.23962 0.95849 0 0.92913-0.024807 0.9585-0.80963 0.9585-0.63922 0-1.0621-0.24082-2.0092-1.1441l-1.1996-1.1441-0.10808-2.7498c-0.059448-1.5124-0.19122-2.9385-0.29284-3.1691-0.16941-0.38451 0.024779-0.41933 2.3385-0.41933 2.298 0 2.5838 0.0504 3.2006 0.56394l0.67735 0.56396 0.59402-0.56396c0.54541-0.5178 0.79753-0.56394 3.0808-0.56394 2.2819 0 2.471 0.0345 2.2946 0.41933-0.10574 0.23064-0.23449 1.6367-0.28611 3.1246l-0.09385 2.7052-1.1887 1.1887c-0.96608 0.96608-1.3436 1.1887-2.0159 1.1887-0.81871 0-0.82727 0.0115-0.82727 1.0609 0 0.84623-0.12122 1.1563-0.59906 1.5321-0.68495 0.53876-0.75507 0.76167-0.23962 0.76167 0.22365 0 0.35944 0.22632 0.35944 0.59907 0 0.55911-0.079871 0.59905-1.1981 0.59905-1.1182 0-1.1981-0.0399-1.1981-0.59905zm1.3728-0.025c-0.079625-0.0796-0.2863-0.0881-0.45928-0.0189-0.19116 0.0766-0.13438 0.13327 0.14477 0.14478 0.2526 0.0105 0.39413-0.0463 0.31451-0.12586zm0.78377-2.0118c0-0.13179-0.047547-0.23963-0.10567-0.23963-0.058117 0-0.17231 0.10777-0.25377 0.23963-0.081456 0.1318-0.0339 0.23963 0.10567 0.23963 0.13957 0 0.25376-0.10778 0.25376-0.23963zm-0.47925-0.57907c0-0.18672 0.13383-0.38407 0.29739-0.43861 0.21627-0.072 0.18826-0.20825-0.1027-0.49921-0.57215-0.57215-0.67394-0.50589-0.67394 0.4386 0 0.46127 0.10783 0.83868 0.23962 0.83868 0.13179 0 0.23962-0.15277 0.23962-0.33946zm-0.35944-2.1102c0.13675-0.10201 0.059592-0.18041-0.17972-0.18251-0.2331-2e-3 -0.41934 0.17371-0.41934 0.39572 0 0.21964 0.080876 0.30177 0.17972 0.18248 0.098844-0.11925 0.28755-0.29732 0.41934-0.39569zm-2.516-0.14003c0-0.1064-0.48524-0.53554-1.0783-0.95357-1.202-0.84726-1.3669-1.4715-0.53915-2.0408l0.53915-0.37081-0.53915-0.39089c-0.71654-0.51951-0.68875-1.2643 0.059909-1.6054 0.71603-0.32626 0.76367-0.59074 0.14195-0.78806-0.25141-0.0797-0.5176-0.30273-0.59154-0.4954-0.073938-0.19267-0.30865-0.35032-0.52158-0.35032-0.34337 0-0.36835 0.3049-0.22087 2.6958 0.16518 2.6779 0.17199 2.7017 1.0273 3.5944 0.77798 0.81192 1.7223 1.1985 1.7223 0.70511zm4.0736-0.40559c0-0.32947-0.10783-0.59906-0.23962-0.59906-0.13179 0-0.23962 0.26959-0.23962 0.59906 0 0.32948 0.10783 0.59906 0.23962 0.59906 0.13179 0 0.23962-0.26958 0.23962-0.59906zm2.4421-0.29952 0.86199-0.89859 0.10315-2.6958c0.05673-1.4827 0.01911-2.6958-0.0836-2.6958-0.36536 0-1.4831 1.2925-1.1995 1.387 0.37969 0.12657 0.99098 0.75391 0.99098 1.017 0 0.11725-0.236 0.43305-0.52443 0.70177l-0.52443 0.48856 0.52443 0.48858c0.28844 0.26873 0.52443 0.60288 0.52443 0.74256 0 0.34568-1.3522 1.5849-1.9292 1.768-0.58649 0.18614-0.61153 0.59517-0.036426 0.59517 0.23684 0 0.81851-0.40434 1.2926-0.89858zm-2.9645-1.1569c0.94718-0.81075 1.0016-0.92797 1.0016-2.1566v-1.2992h-4.3132l0.00897 1.3778c0.00869 1.3328 0.042005 1.4032 1.0184 2.1528 0.55519 0.42621 1.0709 0.77666 1.146 0.77877 0.075125 2e-3 0.58732-0.38194 1.1382-0.85349zm-2.0504-0.65522c-0.64185-0.43384-0.77618-0.67926-0.77878-1.4229l-0.00317-0.89858h3.3547l-0.00298 0.89858c-0.00253 0.76095-0.13048 0.9812-0.83532 1.4378-0.4578 0.29652-0.86082 0.53243-0.89562 0.52426-0.034796-8e-3 -0.4123-0.2508-0.8389-0.53915zm1.5664-0.69199c0.15815-0.15817 0.28755-0.46893 0.28755-0.69064 0-0.3083-0.22537-0.40618-0.95849-0.4163-0.75551-0.0106-0.95849 0.0749-0.95849 0.40308 0 0.52092 0.45485 0.99141 0.95849 0.99141 0.21087 0 0.51279-0.1294 0.67095-0.28755z" stroke-width=".23962"/>
 </g>
</svg>
