<svg version="1.1" viewBox="0 0 50 50" xmlns="http://www.w3.org/2000/svg">
 <g transform="translate(-50.145 -176.44)">
  <path d="m53.437 223.16c0.05488-3.1759 0.07034-3.3031 0.51741-4.258 0.34177-0.73003 0.95201-1.4817 2.3618-2.9091 1.7848-1.8071 1.901-1.9651 1.901-2.586 0-1.0192-0.42492-2.4248-1.3949-4.6143-0.48756-1.1005-0.96987-2.3509-1.0718-2.7788-0.11855-0.49754-0.18533-2.9017-0.18533-6.6716v-5.8938h-4.1439v-16.907h16.575v4.9726h2.8178v4.3096h8.6192v-4.3096h2.8178v-4.9726h16.575v16.907h-4.1439v5.8938c0 3.7699-0.06679 6.1741-0.18533 6.6716-0.10193 0.42783-0.58424 1.6783-1.0718 2.7788-0.97002 2.1895-1.3949 3.595-1.3949 4.6143 0 0.62081 0.11619 0.77886 1.901 2.586 1.4098 1.4274 2.0201 2.1791 2.3619 2.9091 0.44707 0.95499 0.46252 1.0822 0.51741 4.258l0.05658 3.2736h-43.488zm40.583-0.87021v-1.326h-37.792v2.6521h37.792zm-4.8069-10.425c0-2.9313 0.20577-3.9219 1.2432-5.9846 0.70212-1.3961 1.1785-2.958 1.328-4.3538l0.11952-1.116h-33.56l0.11952 1.116c0.14948 1.3959 0.62589 2.9578 1.328 4.3538 1.0374 2.0627 1.2432 3.0533 1.2432 5.9846v2.6346h28.178zm-23.869-1.0949v-1.2432h2.4863v2.4863h-2.4863zm5.1384 0v-1.2432h2.4863v2.4863h-2.4863zm6.7959 0v-1.2432h2.4863v2.4863h-2.4863zm5.1384 0v-1.2432h2.4863v2.4863h-2.4863zm5.4699-15.167v-1.989h3.9781v-2.9836h4.1439v-4.6477c0-4.3305-0.02278-4.6924-0.33364-5.3017-0.62673-1.2285-0.646-1.2327-5.9158-1.2899l-4.6903-0.0509v8.4724h6.7959v2.8178h-5.3041v2.6521h-7.1274v-4.6411h-8.6192v4.6411h-7.1274v-2.6521h-5.3041v-2.8178h6.7959v-8.4724l-4.6903 0.0509c-5.2699 0.0573-5.2891 0.0614-5.9158 1.2899-0.31087 0.60935-0.33364 0.97119-0.33364 5.3017v4.6477h4.1439v2.9836h3.9781v3.9781h25.526zm-31.991-9.0336v-1.2432h2.4863v2.4863h-2.4863zm35.969 0v-1.2432h2.4863v2.4863h-2.4863zm-35.969-4.3096v-1.2432h2.4863v2.4863h-2.4863zm35.969 0v-1.2432h2.4863v2.4863h-2.4863z" stroke-width=".16575"/>
 </g>
</svg>
