<svg version="1.1" viewBox="0 0 13.229 13.229" xmlns="http://www.w3.org/2000/svg">
 <g transform="translate(0 -283.77)">
  <path d="m-0.066644 295.08c0-0.26609 0.50326-1.1236 1.1184-1.9055 1.4034-1.7842 1.3961-1.996-0.12579-3.616-1.1589-1.2336-1.1862-1.4276-0.39794-2.8319 0.82555-1.4708 0.97472-1.5076 6.1155-1.5076 5.1419 0 5.2898 0.0366 6.1162 1.5089 0.78755 1.4031 0.75768 1.6295-0.42623 3.2309l-1.2731 1.722 1.1466 1.4577c1.6031 2.038 1.4497 2.4272-0.95027 2.4115-1.8059-0.0126-2.2233-0.26834-3.0077-1.8484-0.79345-1.5984-0.80828-1.9747-0.11516-2.9219 1.0278-1.4046 0.74277-4.1567-0.51182-4.9423-2.2605-1.4154-4.2325 2.5322-2.4689 4.9423 0.69312 0.94722 0.67829 1.3236-0.11516 2.9219-0.78438 1.58-1.2017 1.8365-3.0077 1.8484-1.1533 8e-3 -2.0969-0.20395-2.0969-0.47zm5.0504-0.4948c0.00972-0.23066 0.38722-0.90783 0.83877-1.5048 0.81268-1.0745 0.82928-1.0745 1.642 0 1.1973 1.583 1.0518 1.9242-0.82098 1.9242-0.92264 0-1.6695-0.18873-1.6597-0.41939zm0.514-4.6793c-0.5091-1.2291-0.55239-2.0129-0.14669-2.6561 1.4747-2.3378 3.564-0.0616 2.4382 2.6561-0.39724 0.959-0.91282 1.7436-1.1457 1.7436s-0.74851-0.78465-1.1457-1.7436z" stroke-width=".55918"/>
 </g>
</svg>
