<svg version="1.1" viewBox="0 0 13.229 13.229" xmlns="http://www.w3.org/2000/svg">
 <g transform="translate(0 -283.77)">
  <path d="m3.9382 296.57c-0.46811-0.36822-0.56376-0.59762-0.46177-1.1076 0.16533-0.82663-0.18585-1.0327-1.0226-0.59999-0.61585 0.31847-0.70822 0.30959-1.2552-0.12071-0.78816-0.61997-0.74464-1.2913 0.1311-2.0224l0.72158-0.60241-0.60808-1.6405c-1.0586-2.8559-0.71492-4.5687 1.1664-5.8137 0.4863-0.32183 1.4352-0.67315 2.1087-0.78074 1.337-0.21357 1.6946-0.11846 1.0052 0.26738-0.73736 0.41265-1.6285 1.5161-1.8762 2.3234-0.2856 0.93057-0.073558 2.183 0.58707 3.4674 0.41226 0.80158 0.60839 0.96481 1.1592 0.96481 0.36467 0 0.72923 0.10712 0.81015 0.23804 0.10119 0.16373 0.24371 0.15787 0.45653-0.0188 0.17018-0.14124 0.52089-0.18968 0.77936-0.10764 0.40033 0.12706 0.5482-0.0299 0.9982-1.0596 1.0618-2.4295 0.92182-3.7381-0.55298-5.1694-0.49136-0.47685-0.89338-0.91478-0.89338-0.97318 0-0.21113 2.242 0.25421 2.8726 0.59622 2.4277 1.3167 2.7823 2.7084 1.6142 6.3352l-0.50324 1.5625 0.73444 0.60361c0.86628 0.71194 0.88161 0.85274 0.1855 1.7037-0.51682 0.63177-0.54402 0.63806-1.2291 0.28377-1.0091-0.52182-1.2499-0.46558-1.1113 0.25957 0.23077 1.2072-0.92024 2.1583-1.9537 1.6143-1.0201-0.53692-1.1007-1.2891-0.24683-2.3038 0.55677-0.66169 0.567-0.71725 0.18363-0.99759-0.42446-0.31037-1.6147-0.39526-2.2303-0.15907-0.52996 0.20337-0.43686 0.70883 0.20845 1.1317 0.85365 0.55934 0.79812 1.7778-0.10223 2.2434-0.86173 0.4456-0.96848 0.43808-1.6755-0.11807zm-0.12167-3.1557c2.3117-1.157 2.2412-1.1067 2.0922-1.495-0.1889-0.49227-0.70681-0.41186-2.3494 0.36475-1.8635 0.88108-2.3594 1.3045-2.0145 1.7201 0.33596 0.40482 0.22897 0.43259 2.2717-0.58985zm7.8018 0.32839c0-0.55734-2.3768-1.8869-3.541-1.9808-0.63619-0.0513-0.78403 0.0218-0.84039 0.41577-0.05619 0.39278 0.11375 0.52906 0.95234 0.76385 0.5614 0.15719 1.3583 0.52662 1.7709 0.82098 0.89611 0.63931 1.6582 0.63024 1.6582-0.0197zm-7.736-2.63c0.12708-0.1185 0.095192-0.44339-0.081038-0.82579-0.1598-0.34675-0.43562-1.1824-0.61293-1.857-0.36548-1.3905-0.15148-2.4743 0.66551-3.3705 0.58208-0.63851 0.35258-0.64836-0.74421-0.0319-0.85608 0.48113-1.5935 1.6324-1.5935 2.488 0 0.24984 0.2697 1.2703 0.59933 2.2676 0.53817 1.6283 0.64822 1.7987 1.0783 1.6692 0.26344-0.0792 0.57326-0.23213 0.68849-0.33957zm6.7983-0.15091c0.44232-0.8561 0.86958-2.5107 0.86958-3.3676 0-1.152-0.59127-1.9921-1.9004-2.7l-1.2097-0.65417 0.8798 0.98109c0.86121 0.96034 0.87742 1.0108 0.76709 2.3852-0.093508 1.1649-0.39839 2.1698-1.0186 3.3575-0.079794 0.1528 0.69258 0.57013 1.1252 0.60799 0.09045 7e-3 0.30958-0.26655 0.48698-0.60991z" stroke-width=".22701"/>
 </g>
</svg>
