<svg version="1.1" viewBox="0 0 6.6146 8.0624" xmlns="http://www.w3.org/2000/svg">
 <path d="m1.3886 7.6561c0.0088-0.42649 0.01095-0.44045 0.08899-0.58132 0.04397-0.0794 0.14789-0.20645 0.23091-0.28236 0.14432-0.13192 0.1523-0.14623 0.18124-0.32497 0.01665-0.10285 0.0277-0.18973 0.02455-0.19308-0.0032-3e-3 -0.32742-0.33063-0.72059-0.72729-0.70774-0.71402-0.8519-0.88593-1.0162-1.2118-0.12247-0.2429-0.16473-0.43581-0.16473-0.75204v-0.27671h0.80673v-0.0878c0-0.0812-0.0102-0.0914-0.13634-0.13623-0.18357-0.0652-0.34011-0.21281-0.43253-0.40788-0.11599-0.24478-0.09374-0.49684 0.07446-0.84354 0.14989-0.30898 0.54545-0.60605 0.90832-0.68215 0.10304-0.0216 0.15452-0.0473 0.17252-0.0862 0.09506-0.20518 0.48842-0.52537 0.87912-0.71562 0.49255-0.23985 1.0265-0.33825 1.6941-0.31224 0.64864 0.0253 1.1206 0.13257 1.5193 0.34542 0.60247 0.32159 1.01 0.8848 1.1024 1.5234 0.03706 0.25621 0.03445 2.0375-0.0033 2.215-0.06781 0.31935-0.14507 0.42192-0.81882 1.0871l-0.62991 0.62186v0.82168l0.15534 0.14058c0.08544 0.0773 0.19132 0.20554 0.2353 0.28493 0.07803 0.1409 0.08017 0.15483 0.08899 0.58132l9e-3 0.43697h-4.2581zm0.72164-0.15463v-0.13445h0.45716v0.2689h0.18824v-0.2689h0.45716v0.2689h0.59159v-0.2689h0.45716v0.2689h0.18824v-0.2689h0.45713v0.2689h0.2689l-5.5e-5 -0.2084c-5.2e-5 -0.25248-0.05236-0.3758-0.18819-0.44365-0.08595-0.0429-0.21435-0.047-1.479-0.047s-1.393 4e-3 -1.479 0.047c-0.13583 0.0679-0.18814 0.19118-0.18819 0.44365l-3e-5 0.2084h0.2689zm2.5815-1.1966v-0.36303h-0.88251c-0.70758 0-0.90953 8e-3 -1.0188 0.0405-0.23451 0.0696-0.38734 0.27187-0.452 0.59816l-0.01732 0.0874h2.3707zm-2.442-0.52443c0.14789-0.1219 0.40794-0.23432 0.62284-0.26927l0.19234-0.0313 0.92774-0.92248c0.83619-0.83146 0.93835-0.92432 1.0353-0.94103 0.25021-0.0432 0.40042-0.23001 0.40042-0.49807 0-0.18798-0.08083-0.34895-0.21808-0.43427-0.09325-0.058-0.13624-0.064-0.51872-0.0722-0.39362-8e-3 -0.42118-6e-3 -0.49076 0.049l-0.07371 0.058v1.0448h-3.6558l0.01603 0.0874c0.02401 0.13087 0.12695 0.37893 0.22855 0.55073 0.09294 0.15718 1.3472 1.4593 1.4056 1.4593 0.01667 0 0.07438-0.0363 0.12824-0.0807zm2.5496-2.5277c-0.03329-0.0333-0.05378-0.0896-0.05378-0.1479s0.0205-0.1146 0.05378-0.1479c0.03329-0.0333 0.08964-0.0538 0.1479-0.0538s0.1146 0.0205 0.1479 0.0538c0.03329 0.0333 0.05378 0.0896 0.05378 0.1479s-0.0205 0.11461-0.05378 0.1479c-0.03329 0.0333-0.08964 0.0538-0.1479 0.0538s-0.11461-0.0205-0.1479-0.0538zm0.66315 1.6336c0.3275-0.32907 0.61782-0.64067 0.64515-0.69244 0.04259-0.0807 0.05094-0.17192 0.0584-0.63866l0.0087-0.54453h-0.26596l-0.01251 0.20841c-0.02446 0.40807-0.25501 0.69373-0.65671 0.81372-0.09175 0.0274-0.23418 0.15638-0.81997 0.74248l-0.70895 0.70931h1.1564zm-1.7246-2.3664c0.03058-0.14461 0.1208-0.26501 0.23869-0.31854 0.09416-0.0428 0.18056-0.0501 0.59601-0.0506 0.63282-7.6e-4 0.85597 0.0601 1.0849 0.29605l0.10304 0.10617 0.1224-0.13086c0.13602-0.14541 0.20713-0.3317 0.20713-0.54261 0-0.0944-0.02836-0.18343-0.11199-0.35141-0.3569-0.71691-1.1865-1.0855-2.3347-1.0374-0.65321 0.0274-1.1035 0.17044-1.4896 0.47324l-0.15817 0.12403 1.3951 0.0134c1.3769 0.0133 1.3974 0.0143 1.5699 0.0762 0.24764 0.0889 0.43495 0.20198 0.62468 0.37708 0.14687 0.13559 0.37028 0.43246 0.37028 0.49206 0 0.0125-0.10296 0.0227-0.2288 0.0227h-0.2288l-0.16784-0.17022c-0.10462-0.10611-0.22702-0.19801-0.32495-0.24399-0.31378-0.1473-0.38823-0.15242-2.0993-0.1444l-1.5682 7e-3 -0.1396 0.0941c-0.1726 0.11637-0.33662 0.35289-0.3804 0.54858-0.02869 0.12821-0.02661 0.15651 0.0183 0.24847 0.09836 0.20143 0.06982 0.19781 1.5611 0.19786l1.3222 6e-5 0.01847-0.0874z" stroke-width=".02689"/>
</svg>
