<svg version="1.1" viewBox="0 0 13.229 13.229" xmlns="http://www.w3.org/2000/svg">
 <g transform="translate(0 -283.77)">
  <path d="m1.6013 295.56c0.068279-1.1004 0.064972-1.1059-0.73874-1.2217-0.76734-0.1106-0.80732-0.16246-0.80732-1.0472 0-0.88008 0.041241-0.93482 0.75631-1.0038l0.75631-0.073v-6.6278l0.76739-0.74378c0.4751-0.46048 1.0048-0.74378 1.3908-0.74378h0.62338l0.063669 4.004 0.063669 4.004 0.58178 0.13583c1.0639 0.24841 0.83367 2.0955-0.26121 2.0955-0.36917 0-0.43693 0.18041-0.43693 1.1635v1.1636h-2.8277zm3.1324-2.555c-0.23655-0.23655-0.43174 0.11959-0.23765 0.43364 0.14662 0.23722 0.20143 0.2374 0.28025 8.7e-4 0.053898-0.16168 0.034724-0.35724-0.042604-0.43456zm-1.0714 0.16969c0-0.30412-2.7209-0.30412-2.9089 0-0.090299 0.14611 0.42422 0.23271 1.3825 0.23271 0.86243 0 1.5264-0.10124 1.5264-0.23271zm-0.23271-4.6903c0-3.512-0.00193-3.525-0.46542-3.1055-0.42113 0.38112-0.46542 0.71675-0.46542 3.5267 0 2.9504 0.023246 3.1055 0.46542 3.1055 0.44495 0 0.46542-0.15513 0.46542-3.5267zm4.7706 6.096c-0.78526-0.32695-1.7726-1.5419-1.9722-2.4269-0.27872-1.2358 0.081991-2.4332 1.0137-3.3649 0.71054-0.71054 0.99653-0.83095 2.1684-0.91297 1.1296-0.079 1.479-5e-3 2.1408 0.44973 2.1418 1.4738 2.1685 4.473 0.05272 5.9108-0.86699 0.58913-2.4345 0.74769-3.4034 0.34428zm1.0472-0.94027c0-0.33475 0.87375-0.28763 0.98738 0.0532 0.12889 0.38668 1.1958-0.31531 1.7388-1.1441 0.29746-0.45397 0.32934-0.64435 0.1196-0.71427-0.15728-0.0524-0.28596-0.28731-0.28596-0.52196 0-0.23466 0.12868-0.46953 0.28596-0.52196 0.38345-0.12782-0.31262-1.194-1.1285-1.7286-0.56536-0.37045-0.6172-0.37064-0.82281-3e-3 -0.27207 0.48616-0.89444 0.5161-0.89444 0.0431 0-0.43477-0.090527-0.43455-0.9355 3e-3 -0.96149 0.49721-1.2873 1.1845-0.90252 1.9035 0.25025 0.4676 0.25005 0.6011-0.00114 0.75634-0.18711 0.11564-0.24511 0.37734-0.15002 0.67693 0.27603 0.8697 1.9892 1.902 1.9892 1.1987zm-1.1163-2.2581 0.069059-1.5817 1.0285-0.0734c0.56569-0.0404 1.2775-0.0111 1.5817 0.0654 0.51829 0.13009 0.54883 0.23013 0.48409 1.5861l-0.0691 1.4473-3.1634 0.138z" stroke-width=".23271"/>
 </g>
</svg>
